<?xml version="1.0" encoding="UTF-8"?>
<svg xmlns="http://www.w3.org/2000/svg" width="2048" height="2048" viewBox="0 0 2048 2048" version="1.1" style="color:#ffffff">
  <title>Canonical Apollonian gasket logo (icon)</title>
  <desc>Favicon-friendly simplified canonical Apollonian gasket.</desc>
  <g fill="none" stroke="currentColor" stroke-width="10" stroke-linecap="round" stroke-linejoin="round">
    <circle cx="1024.000000" cy="1024.000000" r="944.000000"/>
    <circle cx="1024.000000" cy="1024.000000" r="944.000000"/>
    <circle cx="1024.000000" cy="518.111925" r="438.111925"/>
    <circle cx="585.888075" cy="1276.944038" r="438.111925"/>
    <circle cx="1462.111925" cy="1276.944038" r="438.111925"/>
    <circle cx="1024.000000" cy="1756.535280" r="211.464720"/>
    <circle cx="1658.394161" cy="657.732360" r="211.464720"/>
    <circle cx="389.605839" cy="657.732360" r="211.464720"/>
    <circle cx="1335.794562" cy="1804.063588" r="103.931521"/>
    <circle cx="712.205438" cy="1804.063588" r="103.931521"/>
    <circle cx="1855.452165" cy="903.990217" r="103.931521"/>
    <circle cx="1543.657603" cy="363.946195" r="103.931521"/>
    <circle cx="192.547835" cy="903.990217" r="103.931521"/>
    <circle cx="504.342397" cy="363.946195" r="103.931521"/>
    <circle cx="1024.000000" cy="1024.000000" r="67.776151"/>
    <circle cx="1495.672571" cy="1772.880786" r="58.959071"/>
    <circle cx="552.327429" cy="1772.880786" r="58.959071"/>
    <circle cx="1908.386070" cy="1058.040036" r="58.959071"/>
    <circle cx="1436.713499" cy="241.079179" r="58.959071"/>
    <circle cx="139.613930" cy="1058.040036" r="58.959071"/>
    <circle cx="611.286501" cy="241.079179" r="58.959071"/>
    <circle cx="616.818364" cy="788.913573" r="50.897705"/>
    <circle cx="1024.000000" cy="1494.172855" r="50.897705"/>
    <circle cx="1431.181636" cy="788.913573" r="50.897705"/>
    <circle cx="1229.760328" cy="1903.088778" r="41.152066"/>
    <circle cx="818.239672" cy="1903.088778" r="41.152066"/>
    <circle cx="1888.193378" cy="762.649282" r="41.152066"/>
    <circle cx="1682.433050" cy="406.261940" r="41.152066"/>
    <circle cx="159.806622" cy="762.649282" r="41.152066"/>
    <circle cx="365.566950" cy="406.261940" r="41.152066"/>
    <circle cx="1584.820702" cy="1736.337963" r="37.388047"/>
    <circle cx="463.179298" cy="1736.337963" r="37.388047"/>
    <circle cx="1921.313123" cy="1153.515993" r="37.388047"/>
    <circle cx="1360.492421" cy="182.146043" r="37.388047"/>
    <circle cx="126.686877" cy="1153.515993" r="37.388047"/>
    <circle cx="687.507579" cy="182.146043" r="37.388047"/>
    <circle cx="1257.061877" cy="1696.791688" r="29.132735"/>
    <circle cx="790.938123" cy="1696.791688" r="29.132735"/>
    <circle cx="1723.185632" cy="889.441662" r="29.132735"/>
    <circle cx="1490.123755" cy="485.766649" r="29.132735"/>
    <circle cx="324.814368" cy="889.441662" r="29.132735"/>
    <circle cx="557.876245" cy="485.766649" r="29.132735"/>
    <circle cx="1024.000000" cy="1119.281571" r="27.505420"/>
    <circle cx="1106.516261" cy="976.359215" r="27.505420"/>
    <circle cx="941.483739" cy="976.359215" r="27.505420"/>
    <circle cx="1639.723841" cy="1705.352623" r="25.655160"/>
    <circle cx="408.276159" cy="1705.352623" r="25.655160"/>
    <circle cx="1921.930601" cy="1216.556176" r="25.655160"/>
    <circle cx="1306.206760" cy="150.091201" r="25.655160"/>
    <circle cx="126.069399" cy="1216.556176" r="25.655160"/>
    <circle cx="741.793240" cy="150.091201" r="25.655160"/>
    <circle cx="680.716548" cy="825.805207" r="22.885563"/>
    <circle cx="1024.000000" cy="1420.389587" r="22.885563"/>
    <circle cx="1367.283452" cy="825.805207" r="22.885563"/>
    <circle cx="1175.130091" cy="1933.944987" r="21.590013"/>
    <circle cx="872.869909" cy="1933.944987" r="21.590013"/>
    <circle cx="1887.600520" cy="699.910005" r="21.590013"/>
    <circle cx="1736.470429" cy="438.145008" r="21.590013"/>
    <circle cx="160.399480" cy="699.910005" r="21.590013"/>
    <circle cx="311.529571" cy="438.145008" r="21.590013"/>
    <circle cx="1454.644576" cy="1840.936217" r="20.506885"/>
    <circle cx="593.355424" cy="1840.936217" r="20.506885"/>
    <circle cx="1946.809806" cy="988.481034" r="20.506885"/>
    <circle cx="1516.165230" cy="242.582748" r="20.506885"/>
    <circle cx="101.190194" cy="988.481034" r="20.506885"/>
    <circle cx="531.834770" cy="242.582748" r="20.506885"/>
    <circle cx="1082.783341" cy="1533.078667" r="19.594447"/>
    <circle cx="965.216659" cy="1533.078667" r="19.594447"/>
    <circle cx="1494.266729" cy="820.368533" r="19.594447"/>
    <circle cx="1435.483388" cy="718.552800" r="19.594447"/>
    <circle cx="553.733271" cy="820.368533" r="19.594447"/>
    <circle cx="612.516612" cy="718.552800" r="19.594447"/>
    <circle cx="1676.292499" cy="1680.362179" r="18.636929"/>
    <circle cx="371.707501" cy="1680.362179" r="18.636929"/>
    <circle cx="1918.572570" cy="1260.720786" r="18.636929"/>
    <circle cx="1266.280071" cy="130.917036" r="18.636929"/>
    <circle cx="129.427430" cy="1260.720786" r="18.636929"/>
    <circle cx="781.719929" cy="130.917036" r="18.636929"/>
    <circle cx="1432.235174" cy="1731.084064" r="17.009799"/>
    <circle cx="615.764826" cy="1731.084064" r="17.009799"/>
    <circle cx="1840.470349" cy="1024.000000" r="17.009799"/>
    <circle cx="1432.235174" cy="316.915936" r="17.009799"/>
    <circle cx="207.529651" cy="1024.000000" r="17.009799"/>
    <circle cx="615.764826" cy="316.915936" r="17.009799"/>
  </g>
</svg>