<svg xmlns="http://www.w3.org/2000/svg" width="720" height="520" viewBox="0 0 720 520">
  <rect width="720" height="520" fill="none"/>

  <g fill="none" stroke="#fff" stroke-linecap="round" stroke-linejoin="round">
    <g opacity=".28" transform="rotate(-8 132 112)">
      <path d="M24 92h220M132 22v176" stroke-width="1.1"/>
      <path d="M44 148c42-126 74-127 112 2 24 82 48 83 76 0" stroke-width="2.2" opacity=".72"/>
      <path d="M42 112c36 18 70 18 104 0s67-18 104 0" stroke-width="1.4"/>
      <path d="M64 52l118 118M182 52 64 170" stroke-width="1"/>
    </g>

    <g opacity=".34" transform="rotate(5 565 92)">
      <path d="M468 118c28-70 76-94 136-54 36 24 56 21 84-14" stroke-width="2.1"/>
      <path d="M454 132h234M568 18v180" stroke-width="1.2"/>
      <path d="M512 64c10 14 23 21 40 20 19-1 32 8 39 27" stroke-width="1.3"/>
      <path d="M622 38c-14 26-14 54 0 82" stroke-width="1.2"/>
    </g>

    <g opacity=".32" transform="rotate(-16 166 333)">
      <ellipse cx="128" cy="318" rx="75" ry="43" stroke-width="1.7"/>
      <ellipse cx="128" cy="318" rx="37" ry="76" stroke-width="1.2"/>
      <path d="M48 318h160M128 238v160M84 265l88 106M84 371l88-106" stroke-width="1.1"/>
      <path d="M186 289c13 22 12 45-3 68" stroke-width="1.4"/>
    </g>

    <g opacity=".3" transform="rotate(11 530 340)">
      <path d="M410 346c46-96 90 98 135 0s91 97 136 0" stroke-width="2.1"/>
      <path d="M400 346h290M545 236v214" stroke-width="1.1"/>
      <path d="M450 405c32-34 64-34 96 0s64 34 96 0" stroke-width="1.5"/>
      <path d="M420 280c28 15 44 15 72 0s44-15 72 0 44 15 72 0" stroke-width="1.1"/>
    </g>

    <g opacity=".26" transform="rotate(-3 365 462)">
      <path d="M254 430h208M254 468h208M288 398l-36 104M428 398l36 104" stroke-width="1.4"/>
      <path d="M314 420c28 18 58 18 88 0M306 476c42-26 82-26 120 0" stroke-width="1.3"/>
      <path d="M364 384v128" stroke-width=".95"/>
    </g>

    <g opacity=".24" transform="rotate(18 90 468)">
      <path d="M12 450h172M22 420l152 76M44 402l92 116M126 398l-78 116" stroke-width="1.1"/>
      <path d="M40 486c48-38 92-38 132 0" stroke-width="1.3"/>
    </g>

    <g opacity=".22" transform="rotate(-10 622 460)">
      <circle cx="604" cy="446" r="36" stroke-width="1.3"/>
      <circle cx="660" cy="446" r="36" stroke-width="1.3"/>
      <path d="M604 410v72M568 446h128M630 426l22 40" stroke-width="1"/>
      <path d="M584 486c34 18 66 18 96 0" stroke-width="1"/>
    </g>

    <g opacity=".24" transform="rotate(7 326 248)">
      <path d="M264 196c40 18 84 18 132 0M264 228c40-18 84-18 132 0" stroke-width="1.2"/>
      <path d="M268 180h136M268 246h136M336 164v98" stroke-width=".9"/>
      <path d="M286 260c34 26 72 26 112 0" stroke-width="1.3"/>
    </g>

    <g opacity=".2" stroke-width=".9">
      <path d="M28 34c17 5 33 5 50 0M74 70c16 8 30 8 45 0M220 34c22 9 43 9 64 0M606 206c21 8 43 8 66 0M26 394c20 8 41 8 64 0M514 502c30 9 60 9 90 0"/>
      <path d="M18 222l68 22M118 208l78-28M594 166l86 24M196 356l80-30M476 150l-74 30"/>
    </g>
  </g>

  <g fill="#fff" font-family="Georgia, 'Times New Roman', serif" opacity=".6">
    <text x="30" y="50" font-size="22" transform="rotate(-6 30 50)">∮∂Ω ω = ∫Ω dω</text>
    <text x="220" y="62" font-size="20" transform="rotate(4 220 62)">∂tρ + ∇·(ρu) = 0</text>
    <text x="436" y="48" font-size="19" transform="rotate(-10 436 48)">D_KL(P || Q) = Σ p log(p/q)</text>
    <text x="34" y="118" font-size="18" transform="rotate(9 34 118)">ℒ = -1/4 FμνF^μν + ψ̄(iγμDμ-m)ψ</text>
    <text x="320" y="126" font-size="21" transform="rotate(-4 320 126)">∇×B = μ₀J + μ₀ε₀ ∂E/∂t</text>
    <text x="514" y="162" font-size="18" transform="rotate(13 514 162)">Hψ = iℏ ∂ψ/∂t</text>
    <text x="86" y="204" font-size="19" transform="rotate(-13 86 204)">∫ e^{-iωt} x(t) dt</text>
    <text x="286" y="204" font-size="17" transform="rotate(7 286 204)">χ² = (x-μ)^TΣ⁻¹(x-μ)</text>
    <text x="448" y="228" font-size="20" transform="rotate(-5 448 228)">∂u/∂t + u·∇u = -∇p + νΔu</text>
    <text x="44" y="282" font-size="21" transform="rotate(5 44 282)">Rμν - 1/2 Rgμν + Λgμν = 8πGTμν</text>
    <text x="324" y="304" font-size="18" transform="rotate(-15 324 304)">argminθ ||Aθ-b||² + λ||θ||₁</text>
    <text x="538" y="306" font-size="19" transform="rotate(10 538 306)">ẋ = σ(y-x)</text>
    <text x="32" y="356" font-size="18" transform="rotate(-5 32 356)">P(x|z) ∝ P(z|x)P(x)</text>
    <text x="214" y="380" font-size="20" transform="rotate(12 214 380)">det(J - λI) = 0</text>
    <text x="438" y="390" font-size="18" transform="rotate(-8 438 390)">∂S/∂t + H(q, ∂S/∂q, t) = 0</text>
    <text x="44" y="470" font-size="21" transform="rotate(11 44 470)">∇²φ = 4πGρ</text>
    <text x="260" y="492" font-size="18" transform="rotate(-4 260 492)">∫ exp(iS[x]/ℏ) 𝒟x</text>
    <text x="506" y="488" font-size="20" transform="rotate(7 506 488)">AᵀPA - P = -Q</text>
  </g>

  <g fill="#fff" font-family="'SFMono-Regular', Consolas, monospace" opacity=".42">
    <text x="118" y="28" font-size="14" transform="rotate(12 118 28)">rank(A)=r, κ₂(A)=σmax/σmin</text>
    <text x="510" y="92" font-size="15" transform="rotate(6 510 92)">Re(λᵢ) &lt; 0 ⇒ stable</text>
    <text x="44" y="168" font-size="15" transform="rotate(-4 44 168)">∇·D = ρfree</text>
    <text x="250" y="164" font-size="15" transform="rotate(-12 250 164)">β = (XᵀX)⁻¹Xᵀy</text>
    <text x="606" y="210" font-size="14" transform="rotate(18 606 210)">z = r e^{iθ}</text>
    <text x="130" y="242" font-size="15" transform="rotate(15 130 242)">curl grad φ = 0</text>
    <text x="594" y="268" font-size="14" transform="rotate(-11 594 268)">λ = lim 1/t log||δx(t)||</text>
    <text x="210" y="320" font-size="15" transform="rotate(-8 210 320)">Q(s,a) ← Q + α[r + γ max Q - Q]</text>
    <text x="52" y="412" font-size="15" transform="rotate(4 52 412)">Γᵏᵢⱼ = 1/2 gᵏℓ(∂ᵢgⱼℓ+∂ⱼgᵢℓ-∂ℓgᵢⱼ)</text>
    <text x="430" y="444" font-size="14" transform="rotate(14 430 444)">E[XXᵀ] = C, C vᵢ = λᵢvᵢ</text>
    <text x="560" y="366" font-size="14" transform="rotate(-18 560 366)">Noether: δS=0 ⇒ ∂μjμ=0</text>
    <text x="332" y="250" font-size="14" transform="rotate(3 332 250)">F(s)=∫₀∞ e^{-st}f(t)dt</text>
  </g>

  <g fill="#fff" font-family="Georgia, 'Times New Roman', serif" font-size="13" opacity=".24">
    <text x="18" y="18" transform="rotate(-18 18 18)">δJ/δu = 0</text>
    <text x="660" y="34" transform="rotate(16 660 34)">∂Ω</text>
    <text x="612" y="118" transform="rotate(-22 612 118)">Ω×B</text>
    <text x="166" y="142" transform="rotate(21 166 142)">σ-algebra</text>
    <text x="22" y="234" transform="rotate(28 22 234)">res(f,a)</text>
    <text x="386" y="272" transform="rotate(-24 386 272)">Sobolev H¹</text>
    <text x="674" y="430" transform="rotate(19 674 430)">ζ(s)</text>
    <text x="168" y="504" transform="rotate(-16 168 504)">weak form</text>
  </g>
</svg>
